# xmcd
#
# Track frame offsets: 
#        150
#        13487
#        33990
#        51357
#        61617
#        72377
#        87542
#        101862
#        126092
#        147710
#        169625
#        191630
#
# Disc length: 2760 seconds
#
# Revision: 0
# Processed by: cddbd v1.5.2PL0 Copyright (c) Steve Scherf et al.
# Submitted via: ExactAudioCopy v1.1
#
DISCID=b50ac60c
DTITLE=Bill Parker - Legendary Bill Parker's "Wooden Head Puddin' Head
DTITLE=Joon"
DYEAR=1998
DGENRE=R&B
TTITLE0=Wooden Head Puddin' Head Joon
TTITLE1=What Would You Do
TTITLE2=Memories Are All That I've Got
TTITLE3=Why I Put Up With You
TTITLE4=Be Good Be Gone
TTITLE5=Matilda Now Cries For You (Tribute To Cookie)
TTITLE6=My Keyboard
TTITLE7=Trouble, Trouble Enough To Throw Away
TTITLE8=Sassy
TTITLE9=Always Remember You
TTITLE10=Wanna Stay With You
TTITLE11=Know It's Alright
EXTD=
EXTT0=
EXTT1=
EXTT2=
EXTT3=
EXTT4=
EXTT5=
EXTT6=
EXTT7=
EXTT8=
EXTT9=
EXTT10=
EXTT11=
PLAYORDER=
